<svg xmlns="http://www.w3.org/2000/svg" width="500" height="455" viewBox="0 0 500 455">
  <path d="M233.636,401.82l32.59,32.333a10.95,10.95,0,0,1,.027,15.5l-66.148,66.005c-4.284,4.261-12.743,7.753-18.808,7.753h-74.77c-6.065,0-7.51-3.474-3.227-7.735l66.536-66.023a10.9,10.9,0,0,0,0-15.47L137.013,401.6A11.081,11.081,0,0,1,136.977,386L251.721,272.134a11.121,11.121,0,0,1,15.59,0l32.6,32.342a10.918,10.918,0,0,1,0,15.47l-66.609,66.1C229.009,390.3,229.353,397.559,233.636,401.82Zm363.989,47.468a10.917,10.917,0,0,0,0-15.47L351.037,189.13a11.106,11.106,0,0,0-15.59,0l-32.59,32.343a10.9,10.9,0,0,0,0,15.47L454.024,386.956c4.293,4.252,7.8,12.656,7.8,18.673V562.373A11.014,11.014,0,0,1,450.8,573.31H221.4c-6.064,0-14.533,3.483-18.817,7.744l-52.474,52.136c-4.284,4.261-2.829,7.744,3.236,7.744H518.689a11.243,11.243,0,0,0,11.279-10.947V473.253c0-6.016,3.507-7.463,7.791-3.2l11.677,11.58a11.115,11.115,0,0,0,15.6,0Z" transform="translate(-100.838 -185.935)" fill="#9dbf4a"/>
</svg>
